<svg width="786" height="544" viewBox="0 0 786 544" fill="none" xmlns="http://www.w3.org/2000/svg">
<path d="M137.427 135.724C137.427 135.724 75.6074 165.511 144.683 225.472C144.683 225.472 173.865 225.204 147.314 171.433C143.213 163.127 135.283 152.229 137.427 135.724Z" fill="#0DA5CE"/>
<path d="M144.683 225.472C144.683 225.472 142.33 206.885 132.743 190.915C123.157 174.945 123.386 156.517 137.426 135.725" stroke="#2E547B" stroke-miterlimit="10"/>
<path d="M157.111 216.167C157.111 216.167 152.826 208.272 139.666 205.749" stroke="#2E547B" stroke-miterlimit="10"/>
<path d="M132.263 213.559C132.263 213.559 132.398 203.63 138.215 201.977" stroke="#2E547B" stroke-miterlimit="10"/>
<path d="M130.903 187.569C130.903 187.569 147.75 181.238 156.442 194.491" stroke="#2E547B" stroke-miterlimit="10"/>
<path d="M121.425 199.978C121.425 199.978 120.483 185.135 129.08 183.488" stroke="#2E547B" stroke-miterlimit="10"/>
<path d="M126.275 171.429C126.275 171.429 140.578 161.31 147.314 171.432" stroke="#2E547B" stroke-miterlimit="10"/>
<path d="M112.053 174.783C112.053 174.783 118.442 166.44 126.143 167.106" stroke="#2E547B" stroke-miterlimit="10"/>
<path d="M128.484 153.574C128.484 153.574 134.353 148.595 139.641 155.568" stroke="#2E547B" stroke-miterlimit="10"/>
<path d="M115.799 156.767C115.799 156.767 123.59 147.415 129.794 149.939" stroke="#2E547B" stroke-miterlimit="10"/>
<path d="M105.226 176.689C97.5741 173.814 90.6395 169.005 86.9882 161.821C83.5599 164.983 81.3857 169.253 79.4803 173.51C77.4766 177.986 75.7057 182.654 74.2665 187.422C75.8291 189.378 77.1577 190.969 77.6012 191.528C82.0788 197.171 89.2567 205.593 95.7316 208.936C91.8808 209.416 88.7079 206.178 85.2202 204.478C82.7492 203.273 79.9913 202.824 77.2962 202.284C75.2547 201.875 73.2272 201.399 71.213 200.87C70.4384 206.089 70.1666 211.331 70.5175 216.487C75.5509 218.551 80.8718 219.914 86.2817 220.488C88.8563 220.761 92.3405 220.587 94.3117 222.139C91.5724 226.045 84.2454 225.517 80.0123 225.363C77.2479 225.262 74.4836 225.162 71.7199 225.061C72.5585 228.903 73.8045 232.659 75.5213 236.281C76.0433 237.383 76.627 238.456 77.2427 239.51C81.0685 239.345 84.8844 238.971 88.6649 238.347C91.9995 237.797 101.305 233.863 103.66 236.054C102.138 237.218 100.38 238.091 98.6816 239.035C97.488 239.699 96.2932 240.362 95.0636 240.956C93.1215 241.893 91.0992 242.652 89.0798 243.408C86.8032 244.262 84.5265 245.116 82.2505 245.969C87.9584 251.433 95.9778 254.029 103.881 254.659C116.95 255.701 130.321 251.701 140.815 243.875C146.663 239.514 149.163 238.739 156.182 236.975C162.235 235.454 168.374 232.995 172.241 227.844C174.003 225.498 175.167 222.738 175.864 219.888C177.925 211.45 175.728 202.085 170.13 195.445C168.969 194.068 167.685 192.83 166.313 191.705C159.141 199.398 147.747 211.934 144.491 212.963C146.212 206.03 149.858 199.184 153.636 193.156C154.999 190.983 156.469 188.788 157.586 186.483C152.88 184.451 147.745 183.194 142.682 182.434C142.415 182.393 142.148 182.366 141.882 182.328C139.545 189.846 137.217 197.366 134.858 204.877C134.205 206.953 133.22 212.877 129.638 210.74C127.943 209.729 128.981 200.874 128.947 198.903C128.842 192.939 128.739 186.961 128.968 181.004C123.221 180.516 117.486 179.98 111.872 178.69C111.536 178.613 111.2 178.524 110.864 178.44C109.792 182.848 108.925 187.628 108.694 188.385C107.248 184.653 106.16 180.689 105.226 176.689ZM143.991 229.819C145.942 227.661 148.83 226.537 151.716 226.172C154.601 225.807 157.524 226.128 160.416 226.45C161.052 226.521 161.752 226.624 162.164 227.114C162.773 227.839 162.348 229.033 161.557 229.552C160.765 230.071 159.762 230.105 158.816 230.122L157.717 229.597C153.582 231.03 149.336 232.144 145.03 232.929C144.633 233.001 144.211 233.068 143.84 232.913C142.718 232.446 143.177 230.72 143.991 229.819ZM95.1677 192.211C95.4837 193.862 94.9943 195.787 93.5662 196.674L92.2486 195.983C88.1068 192.801 84.6458 188.737 82.1626 184.142C83.8107 182.879 86.1723 183.809 87.9956 184.803C91.1202 186.504 94.4979 188.716 95.1677 192.211ZM107.109 230.288L105.462 230.703C101.033 231.862 96.4341 232.369 91.8587 232.202C91.1627 231.438 91.907 230.216 92.7549 229.624C95.6374 227.613 99.4865 227.952 102.975 228.375C104.545 228.565 106.347 228.905 107.109 230.288ZM118.199 244.517C125.949 242.636 123.219 247.345 117.505 248.771C111 250.395 104.075 250.613 97.463 249.552C104.375 247.874 111.287 246.196 118.199 244.517Z" fill="#24578C"/>
<path d="M696.7 159.565C696.7 159.565 752.218 207.621 664.103 250.23C664.103 250.23 634.037 241.791 676.5 193.68C683.06 186.249 694.297 177.211 696.7 159.565Z" fill="#24578C"/>
<path d="M664.103 250.23C664.103 250.23 671.732 231.692 686.1 217.878C700.469 204.065 705.387 184.968 696.7 159.565" stroke="#2D679B" stroke-miterlimit="10"/>
<path d="M653.87 237.143C653.87 237.143 660.503 230.188 674.801 231.263" stroke="#2D679B" stroke-miterlimit="10"/>
<path d="M680.262 241.4C680.262 241.4 682.901 231.107 677.355 227.773" stroke="#2D679B" stroke-miterlimit="10"/>
<path d="M688.936 214.937C688.936 214.937 673.307 203.685 660.623 214.943" stroke="#2D679B" stroke-miterlimit="10"/>
<path d="M695.256 230.404C695.256 230.404 700.381 215.337 691.961 211.231" stroke="#2D679B" stroke-miterlimit="10"/>
<path d="M698.231 199.561C698.231 199.561 686.289 185.11 676.5 193.681" stroke="#2D679B" stroke-miterlimit="10"/>
<path d="M711.982 207.003C711.982 207.003 707.718 196.599 699.578 195.133" stroke="#2D679B" stroke-miterlimit="10"/>
<path d="M700.944 180.502C700.944 180.502 696.275 173.718 688.862 179.441" stroke="#2D679B" stroke-miterlimit="10"/>
<path d="M713.152 187.347C713.152 187.347 707.722 175.509 700.608 176.38" stroke="#2D679B" stroke-miterlimit="10"/>
<path d="M732.718 216.901C732.727 216.066 733.377 210.984 733.701 206.209C733.337 206.186 732.971 206.169 732.609 206.14C726.553 205.649 720.615 204.361 714.68 203.022C713.013 209.085 711.006 215.064 709.002 221.028C708.339 223 706.565 232.235 704.538 232.712C700.255 233.721 701.151 227.45 701.155 225.154C701.174 216.85 701.227 208.547 701.271 200.243C700.992 200.196 700.714 200.139 700.434 200.094C695.1 199.247 689.535 198.876 684.156 199.421C684.545 202.094 685.325 204.769 686.003 207.389C687.884 214.654 689.37 222.7 688.893 230.219C685.947 228.147 678.481 211.914 673.719 201.893C671.98 202.588 670.295 203.423 668.689 204.438C660.946 209.334 655.755 218.052 655.141 227.192C654.933 230.28 655.226 233.426 656.25 236.347C658.498 242.758 663.888 247.185 669.491 250.643C675.988 254.651 678.255 256.226 682.747 262.475C690.808 273.685 702.98 281.965 716.454 285.079C724.602 286.962 733.493 286.905 740.973 283.227C738.955 281.644 736.938 280.061 734.921 278.478C733.132 277.074 731.339 275.667 729.685 274.106C728.637 273.118 727.647 272.07 726.658 271.023C725.25 269.532 723.76 268.094 722.601 266.44C725.667 264.987 733.771 271.906 736.949 273.521C740.552 275.351 744.27 276.943 748.065 278.326C749.02 277.462 749.949 276.569 750.825 275.628C753.704 272.532 756.154 269.151 758.22 265.555C755.408 264.775 752.597 263.997 749.785 263.218C745.479 262.025 737.942 260.222 736.432 255.423C738.908 254.49 742.357 255.774 745.033 256.319C750.656 257.465 756.44 257.788 762.159 257.316C764.154 252.242 765.55 246.885 766.433 241.389C764.239 241.28 762.049 241.113 759.866 240.874C756.984 240.559 754.067 240.132 751.198 240.557C747.149 241.157 742.928 243.402 739.208 241.693C746.784 240.393 756.683 234.21 762.983 229.961C763.608 229.539 765.45 228.363 767.644 226.893C767.716 221.64 767.421 216.382 766.832 211.243C766.271 206.356 765.444 201.37 763.004 197.097C757.045 203.159 748.54 205.787 739.93 206.242C737.717 209.968 735.361 213.607 732.718 216.901ZM683.196 250.487C682.773 250.524 682.37 250.322 681.995 250.124C677.915 247.965 674 245.492 670.297 242.734L669.025 242.912C668.079 242.594 667.081 242.241 666.45 241.466C665.82 240.692 665.773 239.357 666.616 238.822C667.186 238.461 667.923 238.58 668.586 238.711C671.595 239.308 674.637 239.915 677.423 241.201C680.208 242.486 682.755 244.537 684.03 247.328C684.562 248.493 684.473 250.374 683.196 250.487ZM754.672 219.888C756.822 219.47 759.493 219.286 760.749 221.081C756.789 224.912 752.014 227.896 746.836 229.777L745.291 230.052C744.138 228.706 744.258 226.614 745.102 225.054C746.888 221.754 750.989 220.605 754.672 219.888ZM725.736 258.935C729.379 259.622 733.357 260.506 735.616 263.446C736.28 264.31 736.639 265.777 735.696 266.324C731.042 265.035 726.578 263.06 722.493 260.484L720.969 259.543C722.177 258.394 724.097 258.626 725.736 258.935ZM724.535 281.986C717.548 280.949 710.653 278.523 704.629 274.82C699.337 271.566 698.092 265.961 705.286 270.321C711.703 274.209 718.119 278.098 724.535 281.986Z" fill="#0DA5CE"/>
<g filter="url(#filter0_d_11_28)">
<path d="M123.035 236.301C123.035 236.301 301.973 139.87 556.677 178.839C811.381 217.809 797.553 477.966 650.948 503.858C504.341 529.749 436.835 450.857 341.924 446.717C247.013 442.578 192.231 495.176 119.838 468.854C47.4433 442.534 -22.6872 335.48 123.035 236.301Z" fill="#FFFEF5"/>
</g>
<path d="M227.503 219.609C227.503 219.609 541.976 169.252 655.078 245.434C768.18 321.616 701.457 485.722 545.836 449.06C390.215 412.398 362.408 400.824 276.364 414.467C190.32 428.111 88.4437 406.183 90.9875 370.454C93.5312 334.726 110.594 264.453 227.503 219.609Z" fill="#EDECE6"/>
<path d="M362.88 197.995C362.88 197.995 276.364 197.995 227.503 219.608C213.885 225.632 211.045 260.481 280.117 254.823C349.188 249.165 357.918 234.508 384.104 241.4C410.292 248.293 437.725 272.995 469.815 266.9C501.905 260.805 510.448 222.46 496.623 217.676C482.799 212.892 443.546 201.38 362.88 197.995Z" fill="#E2E1DE"/>
<path d="M314.537 316.877C314.537 316.877 250.587 341.354 226.564 331.048C202.541 320.743 -9.6629 376.435 117.389 405.328C244.44 434.22 263.173 400.926 302.253 400.115C341.333 399.304 410.819 340.072 314.537 316.877Z" fill="#E2E1DE"/>
<path d="M447.357 203.243C447.357 203.243 389.097 148.366 469.815 115.573C469.815 115.573 489.128 121.118 473.608 159.584C458.089 198.052 449.802 185.329 447.357 203.243Z" fill="#2A5081"/>
<path d="M469.815 115.573C469.815 115.573 435.001 144.957 445.53 201.38" stroke="#0BA4CD" stroke-miterlimit="10"/>
<path d="M478.279 125.04C478.279 125.04 464.01 138.884 456.189 132.85" stroke="#0BA4CD" stroke-miterlimit="10"/>
<path d="M447.964 151.387C447.964 151.387 474.352 157.45 478.552 143.793" stroke="#0BA4CD" stroke-miterlimit="10"/>
<path d="M443.58 178.136C443.58 178.136 462.931 182.928 467.799 172.4" stroke="#0BA4CD" stroke-miterlimit="10"/>
<path d="M427.388 156.374C427.388 156.374 430.474 168.627 443.786 173.798" stroke="#0BA4CD" stroke-miterlimit="10"/>
<path d="M438.382 135.21C438.382 135.21 438.446 149.751 446.657 154.56" stroke="#0BA4CD" stroke-miterlimit="10"/>
<path d="M451.277 124.905C451.277 124.905 448.103 133.282 454.467 135.926" stroke="#0BA4CD" stroke-miterlimit="10"/>
<path d="M489.807 139.405C489.807 139.405 466.855 150.167 451.339 183.047" stroke="#35527E" stroke-miterlimit="10"/>
<path d="M488.442 140.124C488.442 140.124 495.01 127.679 505.219 127.946C505.219 127.947 497.028 140.509 488.442 140.124Z" fill="#12B3D8"/>
<path d="M479.925 145.931C479.925 145.931 488.319 136.477 484.744 125.891C484.744 125.892 478.403 136.177 479.925 145.931Z" fill="#039ECA"/>
<path d="M494.719 149.356C494.719 149.356 486.108 141.466 478.201 147.338C478.201 147.338 487.876 153.762 494.719 149.356Z" fill="#12B3D8"/>
<path d="M474.176 134.403C474.176 134.403 477.779 142.567 470.948 154.137C470.948 154.137 465.756 145.439 474.176 134.403Z" fill="#12B3D8"/>
<path d="M486.503 155.528C486.503 155.528 474.383 149.249 467.94 157.424C467.94 157.424 481.056 161.641 486.503 155.528Z" fill="#039ECA"/>
<path d="M465.025 144.773C465.025 144.773 468.913 151.802 463.213 163.255C463.213 163.255 458.13 157.815 465.025 144.773Z" fill="#039ECA"/>
<path d="M477.57 162.451C477.57 162.451 465.319 157.886 459.911 167.35C459.911 167.35 469.876 170.847 477.57 162.451Z" fill="#12B3D8"/>
<path d="M705.422 387.081C705.422 387.081 651.608 327.838 734.632 301.425C734.632 301.425 753.455 308.455 734.99 345.597C716.525 382.74 709.253 369.412 705.422 387.081Z" fill="#2A5081"/>
<path d="M734.632 301.425C734.632 301.425 697.638 328.012 703.745 385.083" stroke="#0BA4CD" stroke-miterlimit="10"/>
<path d="M742.334 311.522C742.334 311.522 727.031 324.214 719.703 317.59" stroke="#0BA4CD" stroke-miterlimit="10"/>
<path d="M710.061 335.431C710.061 335.431 735.898 343.528 741.147 330.239" stroke="#0BA4CD" stroke-miterlimit="10"/>
<path d="M703.61 361.757C703.61 361.757 722.528 368.04 728.201 357.922" stroke="#0BA4CD" stroke-miterlimit="10"/>
<path d="M689.159 338.802C689.159 338.802 691.282 351.257 704.152 357.449" stroke="#0BA4CD" stroke-miterlimit="10"/>
<path d="M701.766 318.556C701.766 318.556 700.7 333.058 708.511 338.491" stroke="#0BA4CD" stroke-miterlimit="10"/>
<path d="M715.425 309.287C715.425 309.287 711.609 317.391 717.748 320.522" stroke="#0BA4CD" stroke-miterlimit="10"/>
<path d="M749.015 347.478C749.015 347.478 725.294 356.422 707.268 387.995" stroke="#35527E" stroke-miterlimit="10"/>
<path d="M747.598 348.089C747.598 348.089 755.113 336.193 765.271 337.254C765.271 337.253 756.127 349.14 747.598 348.089Z" fill="#12B3D8"/>
<path d="M738.655 353.216C738.655 353.216 747.759 344.444 745.018 333.612C745.018 333.612 737.896 343.372 738.655 353.216Z" fill="#039ECA"/>
<path d="M753.137 357.781C753.137 357.781 745.167 349.246 736.827 354.484C736.826 354.484 745.973 361.642 753.137 357.781Z" fill="#12B3D8"/>
<path d="M733.819 341.275C733.819 341.275 736.777 349.695 729.066 360.699C729.066 360.699 724.567 351.622 733.819 341.275Z" fill="#12B3D8"/>
<path d="M744.465 363.295C744.465 363.295 732.87 356.092 725.811 363.742C725.812 363.742 738.56 368.967 744.465 363.295Z" fill="#039ECA"/>
<path d="M723.89 350.902C723.89 350.902 727.22 358.212 720.645 369.187C720.645 369.187 716 363.369 723.89 350.902Z" fill="#039ECA"/>
<path d="M735.021 369.502C735.021 369.502 723.163 363.997 717.036 373.012C717.036 373.012 726.698 377.274 735.021 369.502Z" fill="#12B3D8"/>
<path d="M412.885 243.212C412.885 243.212 485.145 257.248 497.765 245.021C506.43 236.627 501.89 209.786 498.191 193.784C496.518 186.543 489.988 181.48 482.561 181.699C460.601 182.348 416.316 184.503 406.407 191.423C393.102 200.716 403.528 241.559 412.885 243.212Z" fill="#45D7FF"/>
<path d="M497.765 245.021C501.937 240.979 503.046 232.658 502.663 223.331C481.563 215.486 437.3 224.338 422.872 227.704C405.263 231.811 412.885 243.212 412.885 243.212C412.885 243.212 485.145 257.248 497.765 245.021Z" fill="#15AACC"/>
<path d="M452.983 222.196C452.983 222.196 445.128 202.494 448.029 183.495C450.931 164.496 485.713 170.788 490.456 174.776C495.199 178.763 502.888 193.331 502.663 223.331C502.663 223.331 487.423 215.35 452.983 222.196Z" fill="#0DCBFF"/>
<path d="M402.244 196.763C402.244 196.763 403.049 232.624 411.401 236.117C419.754 239.61 469.406 238.378 469.406 238.378" stroke="#4C2C1C" stroke-miterlimit="10" stroke-dasharray="5 5"/>
<path d="M472.607 220.348C472.607 220.348 465.781 242.789 472.047 250.015C478.314 257.241 494.988 254.777 500.14 246.246C505.291 237.717 502.663 223.331 502.663 223.331C502.663 223.331 494.429 216.276 472.607 220.348Z" fill="#15A4BC"/>
<path d="M471.179 248.775C471.179 248.775 471.293 238.177 472.88 230.103C473.62 226.338 476.731 223.482 480.553 223.127C483.535 222.851 487.744 223.088 493.558 224.582" stroke="#4C2C1C" stroke-miterlimit="10" stroke-dasharray="5 5"/>
<path d="M493.458 246.417C495.206 246.417 496.623 245 496.623 243.252C496.623 241.503 495.206 240.086 493.458 240.086C491.709 240.086 490.292 241.503 490.292 243.252C490.292 245 491.709 246.417 493.458 246.417Z" fill="white"/>
<path d="M397.653 226.542C397.653 226.542 404.508 229.842 405.415 228.975L404.853 233.072C404.853 233.072 398.571 233.788 397.653 226.542Z" fill="#15A4BC"/>
<path d="M398.159 216.233C398.159 216.233 396.841 211.279 400.952 207.964C400.952 207.964 402.251 210.946 401.275 212.404C400.299 213.861 398.159 216.233 398.159 216.233Z" fill="#15A4BC"/>
<path d="M471.076 173.196L474.406 201.464" stroke="#4C2C1C" stroke-miterlimit="10" stroke-dasharray="5 5"/>
<path d="M448.744 180.716C448.744 180.716 449.014 194.524 451.473 204.729C452.842 210.406 457.678 214.593 463.5 215.067C469.014 215.515 477.403 215.387 489.214 213.208" stroke="#4C2C1C" stroke-miterlimit="10" stroke-dasharray="5 5"/>
<path d="M398.006 212.136C398.006 212.136 390.643 225.598 398.333 230.185C403.682 233.375 398.1 223.722 399.262 219.443C400.424 215.164 398.006 212.136 398.006 212.136Z" fill="#45D7FF"/>
<path d="M431.285 209.825L429.86 198.583C429.659 197.002 428.216 195.883 426.634 196.083L419.779 196.952C418.198 197.153 417.079 198.597 417.279 200.178L418.704 211.421C418.905 213.001 420.349 214.121 421.93 213.92L428.785 213.051C430.366 212.851 431.486 211.407 431.285 209.825Z" fill="white"/>
<path d="M695.742 97.0142L691.969 95.1547L690.99 97.1405L694.764 99L695.742 97.0142Z" fill="#2C5E84"/>
<path d="M696.269 97.9798L690.907 95.3377L690.956 95.2388C691.686 93.7583 693.477 93.149 694.958 93.8788C696.438 94.608 697.048 96.4004 696.318 97.8809L696.269 97.9798Z" fill="#2C5E84"/>
<path d="M653.97 207.594L629.543 195.557L627.586 199.529L652.013 211.566L653.97 207.594Z" fill="#2C5E84"/>
<path d="M651.069 202.462L635.38 194.731L633.913 197.709L649.601 205.44L651.069 202.462Z" fill="#336797"/>
<path d="M650.772 199.09L638.26 192.925L635.399 194.724L651.088 202.454L650.772 199.09Z" fill="#4187AA"/>
<path d="M652.742 184.111L649.366 182.448L645.883 189.516L649.259 191.18L652.742 184.111Z" fill="#2C5E84"/>
<path d="M647.869 189.761C645.949 188.815 643.626 189.605 642.681 191.524L641.262 194.404L648.212 197.829L649.631 194.949C650.577 193.03 649.788 190.707 647.869 189.761Z" fill="#336797"/>
<path d="M675.645 135.925L673.37 134.804L651.994 178.2L654.269 179.32L675.645 135.925Z" fill="#2C5E84"/>
<path d="M650.635 188.656L647.259 186.993C646.656 186.695 646.407 185.966 646.705 185.362C647.002 184.759 647.732 184.511 648.335 184.808L651.712 186.471C652.315 186.769 652.563 187.498 652.265 188.102C651.968 188.705 651.238 188.953 650.635 188.656Z" fill="#4187AA"/>
<path d="M651.816 184.548L649.485 183.4C648.423 182.877 648.105 181.523 648.829 180.61L652.065 176.526L655.695 178.315L654.428 183.368C654.144 184.5 652.878 185.072 651.816 184.548Z" fill="#4187AA"/>
<path d="M673.919 136.577C672.877 136.063 672.449 134.802 672.962 133.761L674.185 131.278L677.959 133.137L676.735 135.619C676.222 136.662 674.961 137.09 673.919 136.577Z" fill="#4187AA"/>
<path d="M678.931 132.641L673.966 130.194L673.575 130.989L678.54 133.435L678.931 132.641Z" fill="#2C5E84"/>
<path d="M682.106 131.232L673.169 126.828L673.445 123.262L684.765 128.84L682.106 131.232Z" fill="#2C5E84"/>
<path d="M678.549 132.441L674.379 130.386L674.956 127.709L680.319 130.351L678.549 132.441Z" fill="#2C5E84"/>
<path d="M679.481 105.504C679.187 106.099 673.445 123.263 673.445 123.263L684.765 128.84L695.368 113.333L687.217 107.835L679.481 105.504Z" fill="#E5F4F9"/>
<path d="M687.217 107.835L678.41 125.709" stroke="#2C5E84" stroke-miterlimit="10"/>
<path d="M695.469 113.629L679.383 105.702L679.259 101.445L699.118 111.231L695.469 113.629Z" fill="#2C5E84"/>
<path d="M698.062 108.366L681.975 100.44L679.259 101.445L699.118 111.231L698.062 108.366Z" fill="#4187AA"/>
<path d="M694.387 97.793L692.401 96.8142C688.562 94.9228 683.917 96.5011 682.025 100.34L697.913 108.169C699.804 104.33 698.225 99.6844 694.387 97.793Z" fill="#336797"/>
<path d="M692.401 96.8142C692.334 96.7816 692.267 96.7525 692.199 96.7216L688.777 103.667L690.962 104.744L694.387 97.793L692.401 96.8142Z" fill="#4187AA"/>
<path d="M219.529 73.6819L215.48 74.821L216.08 76.952L220.129 75.8129L219.529 73.6819Z" fill="#2C5E84"/>
<path d="M220.568 74.0944L214.814 75.7128L214.784 75.6063C214.337 74.0175 215.263 72.3671 216.851 71.9201C218.44 71.4732 220.091 72.3991 220.538 73.9879L220.568 74.0944Z" fill="#2C5E84"/>
<path d="M262.371 183.865L236.158 191.239L237.358 195.501L263.57 188.127L262.371 183.865Z" fill="#2C5E84"/>
<path d="M256.784 181.988L239.948 186.724L240.847 189.921L257.683 185.184L256.784 181.988Z" fill="#336797"/>
<path d="M254.305 179.712L240.878 183.489L239.952 186.739L256.79 182.003L254.305 179.712Z" fill="#4187AA"/>
<path d="M245.775 167.273L242.152 168.292L244.285 175.878L247.908 174.859L245.775 167.273Z" fill="#2C5E84"/>
<path d="M245.911 174.713C243.851 175.293 242.651 177.432 243.231 179.492L244.1 182.582L251.56 180.484L250.69 177.394C250.111 175.334 247.971 174.134 245.911 174.713Z" fill="#336797"/>
<path d="M230.569 116.117L228.128 116.803L241.232 163.367L243.673 162.68L230.569 116.117Z" fill="#2C5E84"/>
<path d="M247.229 172.043L243.606 173.062C242.959 173.244 242.286 172.867 242.104 172.22C241.922 171.572 242.299 170.9 242.947 170.718L246.57 169.699C247.217 169.516 247.89 169.894 248.072 170.541C248.254 171.188 247.877 171.861 247.229 172.043Z" fill="#4187AA"/>
<path d="M245.363 168.198L242.861 168.901C241.722 169.222 240.581 168.428 240.509 167.264L240.186 162.064L244.081 160.969L246.516 165.574C247.062 166.605 246.503 167.878 245.363 168.198Z" fill="#4187AA"/>
<path d="M229.741 117.742C228.623 118.057 227.462 117.405 227.147 116.287L226.397 113.623L230.447 112.484L231.196 115.148C231.511 116.266 230.859 117.427 229.741 117.742Z" fill="#4187AA"/>
<path d="M230.84 111.44L225.512 112.939L225.751 113.792L231.08 112.293L230.84 111.44Z" fill="#2C5E84"/>
<path d="M232.258 108.295L222.668 110.992L220.49 108.155L232.638 104.738L232.258 108.295Z" fill="#2C5E84"/>
<path d="M230.42 111.571L225.945 112.83L224.586 110.453L230.34 108.834L230.42 111.571Z" fill="#2C5E84"/>
<path d="M213.109 90.9119C213.289 91.5515 220.49 108.155 220.49 108.155L232.638 104.738L230.16 86.1154L220.422 87.4742L213.109 90.9119Z" fill="#E5F4F9"/>
<path d="M220.422 87.4749L225.818 106.656" stroke="#2C5E84" stroke-miterlimit="10"/>
<path d="M230.433 86.269L213.169 91.1249L210.233 88.0417L231.545 82.0469L230.433 86.269Z" fill="#2C5E84"/>
<path d="M228.844 80.6216L211.581 85.4775L210.233 88.0417L231.545 82.0469L228.844 80.6216Z" fill="#4187AA"/>
<path d="M219.044 75.2135L216.912 75.8129C212.793 76.9716 210.392 81.2508 211.551 85.3705L228.601 80.5745C227.442 76.4554 223.163 74.0548 219.044 75.2135Z" fill="#336797"/>
<path d="M216.912 75.8135C216.841 75.8333 216.771 75.8565 216.701 75.8786L218.797 83.3324L221.142 82.6731L219.044 75.2141L216.912 75.8135Z" fill="#4187AA"/>
<path d="M369.317 288.513L327.491 264.275L330.064 264.702L371.889 288.941L369.317 288.513Z" fill="#C6966E"/>
<path d="M369.317 288.513L371.889 288.94L356.763 335.935L356.656 336.265L356.538 336.632C356.329 337.285 355.818 337.79 355.275 337.946C355.099 337.997 354.921 338.011 354.748 337.982C354.561 337.951 354.399 337.873 354.267 337.758C353.897 337.438 353.761 336.839 353.966 336.202L354.473 334.626L369.317 288.513Z" fill="#A37657"/>
<path d="M354.473 334.627L312.648 310.389L327.491 264.275L369.317 288.513L354.473 334.627Z" fill="#B28562"/>
<path d="M353.466 332.003L314.762 309.573L328.498 266.9L367.203 289.33L353.466 332.003Z" fill="#E8C0A3"/>
<path d="M354.473 334.627L353.966 336.203C353.762 336.84 353.898 337.439 354.267 337.759L313.376 349.526L313.329 346.466L354.473 334.627Z" fill="#A37657"/>
<path d="M313.376 349.525L271.55 325.287L271.503 322.228L313.329 346.466L313.376 349.525Z" fill="#B28562"/>
<path d="M313.329 346.466L271.503 322.228L312.648 310.389L354.473 334.627L313.329 346.466Z" fill="#C6966E"/>
<path d="M314.825 342.917L279.383 322.378L314.248 312.346L349.69 332.885L314.825 342.917Z" fill="#B78662"/>
<path d="M137.693 380.111C137.693 380.111 130.922 374.893 122.73 361.613C115.493 349.882 84.6778 336.064 53.2763 338.139C53.2763 338.139 55.1881 388.933 117.449 381.474C122.485 380.871 131.188 377.357 137.693 380.111Z" fill="#35527E"/>
<path d="M55.0874 339.25C55.0874 339.25 94.2657 366.286 134.769 378.991" stroke="#6488BC" stroke-miterlimit="10"/>
<path d="M57.0969 349.567C57.0969 349.567 65.7408 350.894 71.8869 349.827" stroke="#6488BC" stroke-miterlimit="10"/>
<path d="M60.165 357.158C60.165 357.158 76.5205 358.287 83.4505 356.641" stroke="#6488BC" stroke-miterlimit="10"/>
<path d="M67.2149 367.253C67.2149 367.253 85.2895 368.895 94.3489 362.156" stroke="#6488BC" stroke-miterlimit="10"/>
<path d="M79.1195 375.998C79.1195 375.998 99.597 374.403 103.006 366.384" stroke="#6488BC" stroke-miterlimit="10"/>
<path d="M93.6517 380.492C93.6517 380.492 106.194 382 113.831 371.226" stroke="#6488BC" stroke-miterlimit="10"/>
<path d="M113.141 380.973C113.141 380.973 118.801 379.967 121.637 374.385" stroke="#6488BC" stroke-miterlimit="10"/>
<path d="M66.7394 339.212C66.7394 339.212 71.2159 345.111 70.9918 349.295" stroke="#6488BC" stroke-miterlimit="10"/>
<path d="M82.5752 341.361C82.5752 341.361 85.765 350.425 82.7673 356.04" stroke="#6488BC" stroke-miterlimit="10"/>
<path d="M92.0845 343.864C92.0845 343.864 96.4399 354.533 93.4416 361.697" stroke="#6488BC" stroke-miterlimit="10"/>
<path d="M105.752 349.357C105.752 349.357 106.351 361.009 102.276 366.039" stroke="#6488BC" stroke-miterlimit="10"/>
<path d="M112.114 353.002C112.114 353.002 116.019 363.741 112.907 370.833" stroke="#6488BC" stroke-miterlimit="10"/>
<path d="M121.418 361.668C121.418 361.668 123.58 366.919 120.829 374.071" stroke="#6488BC" stroke-miterlimit="10"/>
<path d="M86.0775 303.26C86.0775 303.26 90.6657 344.506 133.454 385.878" stroke="#35527E" stroke-miterlimit="10"/>
<path d="M86.4732 305.756C86.4732 305.756 70.6444 289.021 76.4378 273.337C76.4378 273.337 91.5933 292.651 86.4732 305.756Z" fill="#12B3D8"/>
<path d="M90.9875 322.017C90.9875 322.017 80.7566 304.025 62.4661 303.99C62.4661 303.99 75.0662 319.237 90.9875 322.017Z" fill="#039ECA"/>
<path d="M104.089 300.891C104.089 300.891 87.3235 310.08 92.2591 325.429C92.2591 325.429 107.314 313.817 104.089 300.891Z" fill="#12B3D8"/>
<path d="M70.0892 324.854C70.0892 324.854 84.6424 323.57 98.9767 340.254C98.9767 340.254 82.7591 343.719 70.0892 324.854Z" fill="#12B3D8"/>
<path d="M109.327 316.877C109.327 316.877 93.2094 332.356 102.487 346.648C102.486 346.648 115.933 328.541 109.327 316.877Z" fill="#039ECA"/>
<path d="M81.342 344.501C81.342 344.501 94.2855 342.178 109.033 357.047C109.033 357.047 97.9251 362.059 81.342 344.501Z" fill="#039ECA"/>
<path d="M115.351 334.37C115.351 334.37 101.821 350.952 113.641 364.32C113.64 364.32 124.311 350.719 115.351 334.37Z" fill="#12B3D8"/>
<path d="M180.372 321.853L223.678 308.874L255.882 299.225C256.252 299.115 256.627 299.021 257.005 298.957C262.2 297.976 267.428 300.95 269.182 306.06C270.985 311.309 268.516 317.056 263.477 319.373L262.463 319.84L209.208 352.915C202.59 357.026 194.662 358.48 187.016 356.986L180.408 355.694L180.372 321.853Z" fill="#0B4177"/>
<path d="M266.819 297.566C270.246 298.28 273.284 300.68 274.618 304.284L301.891 378.146L306.205 389.83L299.457 392.515L292.558 380.09L257.557 317.061L255.369 313.12C254.737 311.976 254.331 310.769 254.146 309.549C253.511 305.351 255.448 301.008 259.345 298.762C261.718 297.392 264.368 297.048 266.819 297.566Z" fill="#0B4177"/>
<path d="M306.208 389.832L315.641 393.904L299.343 396.089L299.338 392.496L306.208 389.832Z" fill="#0B4177"/>
<path d="M237.113 306.532L200.1 262.441C194.881 256.224 196.277 246.842 203.079 242.414C209.717 238.093 218.63 240.376 222.373 247.356L249.579 298.089C251.446 301.57 250.321 305.902 246.997 308.035C243.793 310.092 239.561 309.447 237.113 306.532Z" fill="#21C7ED"/>
<path d="M297.552 297.919L244.266 309.172C240.134 310.045 236.1 307.32 235.367 303.161C234.597 298.799 237.769 294.73 242.187 294.412L296.58 290.495L297.552 297.919Z" fill="#21C7ED"/>
<path d="M295.968 291.357C295.968 291.357 299.278 287.125 301.786 286.995C304.295 286.864 301.881 290.412 301.881 290.412C301.881 290.412 311.428 287.982 311.59 292.383C311.751 296.782 303.018 299.382 296.977 297.669L295.968 291.357Z" fill="#F4A484"/>
<path d="M146.245 236.802L207.707 239.786C214.105 240.097 218.973 245.655 218.426 252.036C216.888 270.014 213.069 305.296 205.115 333.192C205.115 333.192 188.58 337.681 176.26 337.083C165.7 336.57 151.413 326.736 151.413 326.736C143.248 276.946 146.245 236.802 146.245 236.802Z" fill="#26D1FF"/>
<path d="M240.357 311.692C242.118 316.95 239.597 322.686 234.54 324.956L233.497 325.422L208.611 336.58L181.968 354.752C171.821 361.673 157.893 356.147 155.251 344.153L151.414 326.736L166.541 322.343L227.118 304.746C228.417 304.364 229.734 304.245 231.007 304.351C235.186 304.696 238.949 307.482 240.357 311.692Z" fill="#0A468F"/>
<path d="M282.959 391.391L276.484 394.685L269.319 384.213L225.21 319.731C225.021 319.456 224.846 319.173 224.699 318.888C223.953 317.568 223.531 316.14 223.4 314.7C223.068 311.051 224.637 307.329 227.841 305.065C232.755 301.587 239.438 302.916 242.727 307.698C243.038 308.146 243.317 308.633 243.563 309.144L277.919 380.868L282.959 391.391Z" fill="#0A468F"/>
<path d="M282.957 391.391L292.727 394.569L276.703 398.258L276.364 394.681L282.957 391.391Z" fill="#0B4177"/>
<path d="M156.193 300.657C156.193 300.657 160.256 297.141 162.742 297.496C165.228 297.851 162.177 300.868 162.177 300.868C162.177 300.868 172.013 300.322 171.324 304.67C170.635 309.019 161.566 309.889 155.967 307.045L156.193 300.657Z" fill="#FFB18E"/>
<path d="M186.465 252.031L175.083 238.521L178.608 226.673L191.938 230.638L186.465 252.031Z" fill="#FFB18E"/>
<path d="M200.058 220.63C199.726 227.674 196.941 238.065 191.352 236.402C185.763 234.74 175.197 225.494 177.245 218.61C179.293 211.726 185.485 207.493 191.074 209.156C196.663 210.818 200.396 213.455 200.058 220.63Z" fill="#FFBCA1"/>
<path d="M188.633 219.218C188.633 219.218 205.144 219.734 203.679 212.685C202.214 205.635 191.552 201.045 182.131 206.14C182.131 206.14 164.981 211.723 177.475 230.484C177.474 230.484 187.346 230.308 188.633 219.218Z" fill="#264E81"/>
<path d="M186.247 222.552C186.247 222.552 184.52 217.242 182.076 219.54C179.632 221.838 182.287 228.059 184.331 228.407L186.247 222.552Z" fill="#FFBCA1"/>
<path d="M191.13 228.161L196.909 230.383C196.909 230.383 195.226 232.267 194.195 231.903C193.164 231.538 190.918 229.358 191.13 228.161Z" fill="white"/>
<path d="M186.465 252.031L171.924 238.049L175.395 236.929L186.465 252.031Z" fill="white"/>
<path d="M186.465 252.031L190.08 237.899L189.679 248.928L186.465 252.031Z" fill="white"/>
<path d="M175.225 251.204L179.701 245.527L171.923 238.057L175.225 251.204Z" fill="white"/>
<path d="M189.679 248.928L191.566 252.366C191.566 252.366 192.713 242.209 190.063 238.351L189.679 248.928Z" fill="white"/>
<path d="M108.961 296.37L154.473 261.118C160.89 256.148 161.513 246.683 155.802 240.915C150.23 235.286 141.036 235.63 135.899 241.659L98.5658 285.479C96.004 288.486 96.1856 292.957 98.9825 295.746C101.679 298.434 105.951 298.702 108.961 296.37Z" fill="#21C7ED"/>
<path d="M158.185 300.262L106.36 283.525C102.34 282.227 98.0455 284.517 96.8822 288.578C95.663 292.835 98.3947 297.213 102.755 297.989L156.445 307.546L158.185 300.262Z" fill="#21C7ED"/>
<path d="M197.555 221.722C197.555 221.722 201.797 225.199 201.29 230.146C201.29 230.146 197.694 230.034 197.276 228.507C196.859 226.981 197.555 221.722 197.555 221.722Z" fill="#FFBCA1"/>
<path d="M296.581 231.614L296.421 225.062L315.247 222.139L377.33 212.493C379.121 212.219 380.873 212.45 382.439 213.095C385.389 214.31 387.658 216.97 388.235 220.334C389.244 226.184 384.743 231.528 378.807 231.537L315.967 231.595L296.581 231.614Z" fill="#22273F"/>
<path d="M388.208 223.506C389.385 218.418 386.334 213.308 381.296 211.93L303.051 189.627L292.27 217.671L377.488 230.961C382.446 231.6 387.081 228.376 388.208 223.506Z" fill="#22273F"/>
<path d="M291.339 229.187L282.113 228.359L295.454 221.894L296.471 224.969L291.339 229.187Z" fill="#F4A07F"/>
<path d="M339.994 234.101C340.231 234.933 340.364 235.809 340.365 236.716C340.371 242.648 335.041 247.162 329.186 246.173L275.184 237.026L248.12 232.438L249.055 225.957L275.406 226.342L330.926 227.153C335.249 227.216 338.862 230.135 339.994 234.101Z" fill="#2D3353"/>
<path d="M339.277 241.42C341.876 236.89 340.433 231.116 336.009 228.341L302.253 196.67L275.806 190.569L275.09 191.762C267.326 204.683 272.647 221.484 286.434 227.581L326.859 245.457C331.421 247.502 336.79 245.757 339.277 241.42Z" fill="#2D3353"/>
<path d="M248.121 232.441L240.701 237.985L246.313 224.265L249.124 225.874L248.121 232.441Z" fill="#FFB18E"/>
<path d="M320.267 99.7851C320.267 99.7851 320.016 112.357 321.266 116.453C321.266 116.453 314.509 116.148 313.711 115.37C312.914 114.592 314.774 101.722 320.267 99.7851Z" fill="#34517D"/>
<path d="M348.727 180.802L318.55 138.575C314.295 132.621 316.207 124.286 322.632 120.783C328.901 117.364 336.753 120.042 339.628 126.578L360.524 174.087C361.958 177.347 360.644 181.161 357.506 182.846C354.482 184.47 350.723 183.595 348.727 180.802Z" fill="#F4A484"/>
<path d="M339.628 126.579C336.753 120.043 328.901 117.365 322.632 120.783C316.207 124.287 314.295 132.622 318.55 138.576L334.699 161.173C340.568 160.691 348.343 155.73 350.579 151.476L339.628 126.579Z" fill="#F25555"/>
<path d="M400.552 158.316L358.073 182.942C354.779 184.852 350.557 183.652 348.759 180.296C346.873 176.776 348.446 172.398 352.14 170.883L397.631 152.23L400.552 158.316Z" fill="#F4A484"/>
<path d="M397.186 152.184C397.186 152.184 401.353 149.713 403.502 150.426C405.652 151.139 402.462 153.327 402.462 153.327C402.462 153.327 411.277 154.414 409.972 158.162C408.666 161.911 400.479 161.235 395.967 157.817L397.186 152.184Z" fill="#F4A484"/>
<path d="M282.965 166.255L277.034 129.356C275.72 121.177 282.571 114.002 290.801 114.936L329.541 119.334C335.28 119.986 339.336 125.269 338.474 130.979C338.192 132.849 337.243 135.776 335.9 139.274C335.949 141.968 336.683 145.331 337.101 147.372C338.59 154.637 335.592 157.175 329.218 158.433C328.628 158.549 328.043 158.605 327.46 158.631C322.594 169.03 317.968 178.147 317.968 178.147L322.83 195.265C322.83 195.265 317.401 208.946 295.593 205.045C286.211 203.366 271.503 197.96 271.503 197.96L282.965 166.255Z" fill="#FF6160"/>
<path d="M256.365 169.405L277.622 122.056C280.619 115.38 286.48 116.805 292.744 120.588L293.495 119.292C299.607 122.984 300.379 127.525 298.609 134.213L268.111 176.209C266.018 179.091 262.062 179.878 259.025 178.017C256.098 176.224 254.959 172.536 256.365 169.405Z" fill="#FFBCA1"/>
<path d="M311.618 179.18L262.517 179.343C258.708 179.355 255.647 176.211 255.763 172.405C255.883 168.414 259.43 165.403 263.387 165.932L312.12 172.448L311.618 179.18Z" fill="#FFBCA1"/>
<path d="M311.362 172.953C311.362 172.953 315.546 170.512 317.69 171.238C319.835 171.965 316.631 174.133 316.631 174.133C316.631 174.133 325.437 175.28 324.106 179.019C322.774 182.759 314.593 182.026 310.103 178.576L311.362 172.953Z" fill="#FFBCA1"/>
<path d="M316.254 130.539L303.727 116.755L303.737 105.609L316.274 105.62L316.254 130.539Z" fill="#FFB18E"/>
<path d="M320.728 94.8873C322.247 101.062 320.377 111.187 317.246 110.752C314.524 110.374 302.247 106.851 302.253 100.375C302.258 93.8997 304.764 87.2677 310.022 87.2717C315.279 87.277 319.182 88.5992 320.728 94.8873Z" fill="#FFBCA1"/>
<path d="M315.244 104.724L319.181 105.034C319.181 105.034 318.493 106.492 317.797 106.456C317.101 106.42 315.332 105.495 315.244 104.724Z" fill="white"/>
<path d="M311.533 97.0801C311.533 97.0801 316.632 97.0534 321.626 97.5527C323.988 97.789 324.283 82.1371 308.987 84.4294C308.987 84.4294 284.386 84.2001 303.728 115.37C303.728 115.37 313.46 110.246 311.533 97.0801Z" fill="#34517D"/>
<path d="M299.109 88.2064C299.109 88.2064 289.613 99 297.055 113.529L303.728 115.37L299.109 88.2064Z" fill="#34517D"/>
<path d="M295.046 116.613C288.781 112.83 280.619 115.379 277.622 122.056L266.907 145.922C266.907 145.922 268.335 155.704 281.898 157.223L298.608 134.213C302.804 128.435 301.159 120.305 295.046 116.613Z" fill="#FF6160"/>
<path d="M320.152 98.7061L322.83 103.58L319.788 104.089L320.152 98.7061Z" fill="#FFBCA1"/>
<path d="M191.771 411.402C191.771 411.402 121.69 405.202 113.328 390.636C107.588 380.637 118.851 357.183 126.475 343.461C129.925 337.252 137.26 334.328 144.025 336.491C164.025 342.889 204.131 356.569 211.405 365.544C221.171 377.595 200.802 412.356 191.771 411.402Z" fill="#FF6160"/>
<path d="M113.328 390.637C110.564 385.822 111.744 377.886 114.56 369.42C136.014 367.789 174.332 387.616 186.695 394.519C201.784 402.944 191.771 411.403 191.771 411.403C191.771 411.403 121.69 405.202 113.328 390.637Z" fill="#E55353"/>
<path d="M178.728 387.98C178.728 387.98 153.497 375.64 162.04 359.424C170.584 343.206 191.474 353.792 191.474 353.792" stroke="#B23B3B" stroke-miterlimit="10"/>
<path d="M170.832 368.337C173.366 368.337 175.42 366.283 175.42 363.749C175.42 361.215 173.366 359.16 170.832 359.16C168.298 359.16 166.244 361.215 166.244 363.749C166.244 366.283 168.298 368.337 170.832 368.337Z" fill="white"/>
<path d="M213.818 371.549C213.818 371.549 203.604 404.275 195.009 405.277C186.414 406.278 141.133 392.028 141.133 392.028" stroke="#4C2C1C" stroke-miterlimit="10" stroke-dasharray="5 5"/>
<path d="M142.956 374.622C142.956 374.622 143.297 397.038 135.632 402.019C127.967 407.001 113.302 400.331 110.824 391.135C108.346 381.939 114.561 369.42 114.561 369.42C114.561 369.42 123.988 365.115 142.956 374.622Z" fill="#CE4949"/>
<path d="M136.757 401.109C136.757 401.109 139.452 391.345 140.128 383.51C140.443 379.856 138.34 376.41 134.924 375.075C132.258 374.033 128.329 373.139 122.594 372.974" stroke="#4C2C1C" stroke-miterlimit="10" stroke-dasharray="5 5"/>
<path d="M117.753 393.176C119.424 393.176 120.779 391.821 120.779 390.15C120.779 388.479 119.424 387.124 117.753 387.124C116.082 387.124 114.727 388.479 114.727 390.15C114.727 391.821 116.082 393.176 117.753 393.176Z" fill="white"/>
<path d="M210.166 400.114C210.166 400.114 202.998 401.335 202.394 400.298L201.827 404.21C201.827 404.21 207.408 406.528 210.166 400.114Z" fill="#CE4949"/>
<path d="M212.426 390.511C212.426 390.511 214.945 386.309 212.046 382.178C212.046 382.178 210.065 384.574 210.576 386.171C211.087 387.767 212.426 390.511 212.426 390.511Z" fill="#CE4949"/>
<path d="M213.648 386.79C213.648 386.79 216.855 401.101 208.579 403.282C202.824 404.798 210.502 397.406 210.565 393.169C210.627 388.931 213.648 386.79 213.648 386.79Z" fill="#E55353"/>
<path d="M471.619 246.106L529.555 212.849C537.724 208.159 539.95 197.38 534.307 189.838C528.801 182.48 518.177 181.408 511.312 187.518L461.408 231.929C457.984 234.976 457.479 240.145 460.25 243.797C462.919 247.317 467.788 248.305 471.619 246.106Z" fill="#ED8772"/>
<path d="M404.119 231.492L465.332 247.209C470.08 248.428 474.894 245.472 475.953 240.686C477.063 235.668 473.589 230.792 468.484 230.201L405.62 222.934L404.119 231.492Z" fill="#ED8772"/>
<path d="M406.285 223.962C406.285 223.962 402.659 218.89 399.758 218.614C396.856 218.337 399.476 222.57 399.476 222.57C399.476 222.57 388.53 219.275 388.123 224.368C387.715 229.461 397.709 232.913 404.798 231.229L406.285 223.962Z" fill="#ED8772"/>
<path d="M520.044 182.461C520.044 182.461 513.892 180.905 488.246 208.044C488.246 208.044 490.535 228.199 505.085 234.018C505.085 234.018 531.722 220.245 532.952 207.442C534.183 194.639 539.079 179.594 520.044 182.461Z" fill="#FFCF61"/>
<path d="M586.623 356.102C579.956 355.238 575.162 349.264 575.762 342.569L583.919 251.457L622.589 251.038L600.428 346.516C598.973 352.784 593.004 356.929 586.623 356.102Z" fill="#293357"/>
<path d="M690.604 405.688H676.741L581.972 358.587C575.132 355.187 572.998 346.449 577.502 340.279C581.471 334.843 589.066 333.595 594.565 337.475L690.604 405.688Z" fill="#293357"/>
<path d="M681.478 403.874L671.541 410.46L690.604 409.611L689.872 405.507L681.478 403.874Z" fill="#E01E1E"/>
<path d="M490.667 307.034C487.596 301.055 489.795 293.717 495.649 290.412L575.304 245.434L597.589 277.04L506.393 312.964C500.406 315.321 493.607 312.758 490.667 307.034Z" fill="#293357"/>
<path d="M485.096 408.231L476.734 407.167L487.547 301.893C488.328 294.294 495.76 289.227 503.119 291.277C509.603 293.084 513.439 299.757 511.738 306.269L485.096 408.231Z" fill="#293357"/>
<path d="M476.734 407.167L467.306 414.467L486.255 412.218L485.224 408.178L476.734 407.167Z" fill="#E01E1E"/>
<path d="M590.472 168.248C599.335 186.237 612.539 215.787 622.445 249.869C622.445 249.869 596.915 265.67 584.709 266.909C566.727 268.735 550.604 259.38 550.604 259.38C551.094 222.934 530.084 243.79 512.835 201.83C510.003 194.942 511.357 187.138 517.915 183.607L562.859 159.407C572.908 153.996 585.428 158.011 590.472 168.248Z" fill="#FFCF61"/>
<path d="M598.069 239.627L582.016 249.548C582.016 249.548 592.251 314.937 645.064 293.246L598.069 239.627Z" fill="#AF1E1E"/>
<path d="M598.069 239.627C598.069 239.627 610 288.723 623.967 293.378C637.934 298.034 660.339 292.214 657.72 275.919C655.102 259.625 630.659 227.352 630.659 227.352C630.659 227.352 609.542 226.904 598.069 239.627Z" fill="#E01E1E"/>
<path d="M529.593 177.319C529.593 177.319 553.586 225.558 596.698 248.812C600.322 250.766 600.892 255.721 597.761 258.392L597.733 258.415C595.816 260.051 593.068 260.265 590.917 258.953C579.969 252.274 546.784 229.315 520.045 182.461C520.044 182.461 522.099 176.851 529.593 177.319Z" fill="#E01E1E"/>
<path d="M552.811 164.817L545.096 192.699L535.21 174.295L552.811 164.817Z" fill="#FFE2AE"/>
<path d="M528.822 234.386L557.111 173.868C561.1 165.335 571.655 162.214 579.643 167.207C587.437 172.078 589.395 182.574 583.881 189.928L543.804 243.374C541.054 247.041 535.947 247.977 532.075 245.522C528.344 243.156 526.951 238.388 528.822 234.386Z" fill="#F59179"/>
<path d="M477.046 261.247L532.19 230.373C536.467 227.978 541.877 229.603 544.127 233.957C546.486 238.523 544.377 244.127 539.593 246.005L480.688 269.136L477.046 261.247Z" fill="#F59179"/>
<path d="M479.403 261.241C479.403 261.241 473.977 258.168 471.229 259.14C468.482 260.112 472.642 262.847 472.642 262.847C472.642 262.847 461.327 264.472 463.103 269.262C464.88 274.052 475.397 272.972 481.117 268.458L479.403 261.241Z" fill="#F59179"/>
<path d="M544.375 188.658L551.094 167.099L544.294 154.469L530.085 162.12L544.375 188.658Z" fill="#ED8772"/>
<path d="M518.496 152.665C520.537 160.591 526.153 171.739 532.111 168.531C538.069 165.323 547.891 152.325 543.939 144.987C539.988 137.648 531.954 134.3 525.997 137.508C520.039 140.717 516.419 144.594 518.496 152.665Z" fill="#F59179"/>
<path d="M531.144 148.366C531.144 148.366 506.78 156.903 506.78 134.902C506.78 122.048 518.893 134.234 535.446 131.973C542.57 131 556.249 134.268 546.482 158.532C546.481 158.532 535.224 160.662 531.144 148.366Z" fill="#26344F"/>
<path d="M532.952 153.504C532.952 153.504 533.155 147.028 536.623 148.797C540.091 150.565 539.149 158.358 536.984 159.408L532.952 153.504Z" fill="#F59179"/>
<path d="M529.139 158.314L524.967 164.163C524.967 164.163 527.803 164.91 528.567 163.898C529.332 162.886 530.111 159.338 529.139 158.314Z" fill="#FFFFEA"/>
<path d="M545.836 197.989C545.836 197.989 557.946 213.387 571.332 215.41C571.332 215.41 599.291 186.495 582.091 169.097C559.11 145.851 545.836 197.989 545.836 197.989Z" fill="#FFD278"/>
<path d="M519.391 154.469C519.391 154.469 521.573 162.728 519.391 163.455C519.391 163.455 523.101 165.034 524.265 161.371C525.429 157.708 519.391 154.469 519.391 154.469Z" fill="#F59179"/>
<path d="M627.209 236.186C623.296 237.094 620.477 239.354 620.913 241.232C621.349 243.111 624.875 243.897 628.788 242.989C632.702 242.08 635.521 239.821 635.085 237.942C634.649 236.064 631.123 235.278 627.209 236.186Z" fill="#FFE2AE"/>
<path d="M234.996 199.347C234.996 199.347 230.262 192.66 228.957 186.3C228.957 186.3 229.664 194.082 231.114 196.424C232.563 198.766 225.415 189.658 223.839 188.118C223.839 188.118 229.243 194.852 227.723 199.049C227.723 199.049 224.605 189.001 220.631 186.622C220.631 186.622 223.053 196.915 225.625 200.676C225.625 200.676 222.499 196.787 218.554 193.66C218.554 193.66 220.822 199.56 223.443 201.452C223.443 201.452 218.758 198.734 215.624 192.231C215.624 192.231 214.959 196.998 217.58 200.182C217.58 200.182 213.408 197.582 211.617 187.908C211.617 187.908 210.229 193.474 213.408 197.582C213.408 197.582 211.017 192.591 207.287 191.364L212.499 209.691L224.888 208.291L234.996 199.347Z" fill="white"/>
<path d="M137.88 233.68C137.88 233.68 133.146 226.995 131.841 220.633C131.841 220.633 132.548 228.415 133.997 230.757C135.447 233.1 128.299 223.992 126.723 222.452C126.723 222.452 132.126 229.185 130.607 233.382C130.607 233.382 127.489 223.334 123.515 220.955C123.515 220.955 125.937 231.248 128.509 235.01C128.509 235.01 125.383 231.121 121.438 227.994C121.438 227.994 123.705 233.894 126.327 235.786C126.327 235.786 121.642 233.068 118.508 226.564C118.508 226.564 117.843 231.332 120.464 234.516C120.464 234.516 116.292 231.916 114.501 222.241C114.501 222.241 113.113 227.807 116.291 231.916C116.291 231.916 113.901 226.925 110.17 225.698L115.383 244.025L127.771 242.625L137.88 233.68Z" fill="white"/>
<path d="M653.499 218.199C653.499 218.199 659.888 213.071 662.889 207.313C662.889 207.313 660.072 214.601 658.035 216.456C655.999 218.31 665.373 211.515 667.311 210.467C667.311 210.467 660.267 215.458 660.574 219.91C660.574 219.91 666.332 211.105 670.806 209.909C670.806 209.909 665.651 219.141 662.145 222.052C662.145 222.052 666.218 219.171 670.87 217.247C670.87 217.247 667.07 222.298 664.03 223.397C664.03 223.397 669.28 222.07 674.081 216.677C674.081 216.677 673.41 221.444 670.016 223.786C670.016 223.786 674.742 222.431 679.121 213.621C679.121 213.621 678.927 219.354 674.743 222.431C674.743 222.431 678.413 218.289 682.336 218.134L672.291 234.324L660.764 229.576L653.499 218.199Z" fill="white"/>
<defs>
<filter id="filter0_d_11_28" x="7.80399" y="143.564" width="778.028" height="399.5" filterUnits="userSpaceOnUse" color-interpolation-filters="sRGB">
<feFlood flood-opacity="0" result="BackgroundImageFix"/>
<feColorMatrix in="SourceAlpha" type="matrix" values="0 0 0 0 0 0 0 0 0 0 0 0 0 0 0 0 0 0 127 0" result="hardAlpha"/>
<feOffset dy="4"/>
<feGaussianBlur stdDeviation="15"/>
<feComposite in2="hardAlpha" operator="out"/>
<feColorMatrix type="matrix" values="0 0 0 0 0 0 0 0 0 0 0 0 0 0 0 0 0 0 0.2 0"/>
<feBlend mode="normal" in2="BackgroundImageFix" result="effect1_dropShadow_11_28"/>
<feBlend mode="normal" in="SourceGraphic" in2="effect1_dropShadow_11_28" result="shape"/>
</filter>
</defs>
</svg>
